<?xml version="1.0" encoding="iso-8859-1"?>
<svg version="1.1" id="Capa_1" xmlns="http://www.w3.org/2000/svg" xmlns:xlink="http://www.w3.org/1999/xlink" x="0px" y="0px"
	 viewBox="0 0 360.8 360.8" style="enable-background:new 0 0 360.8 360.8;" xml:space="preserve">
			<path d="M15.6,294.47c0,18,14.8,32.8,32.8,32.8H328c18,0,32.8-14.8,32.8-32.8v-120.8H15.6V294.47z M146.4,250.47v-37.2
				c0-1.6,0.4-3.2,1.2-4.8c2.8-4.8,8.4-6,13.2-3.6l32.4,18.8l32,18.4c1.6,0.8,2.8,2,3.6,3.6c2.8,4.8,1.2,10.4-3.6,13.2l-31.6,18.4
				l-0.4,0.4l-31.6,18.4c-1.6,1.2-3.6,1.6-5.6,1.6c-5.2,0-9.6-4.4-9.6-9.6V250.47z"/>
			<polygon points="234,92.07 278,38.47 231.2,42.87 186.8,96.869 			"/>
			<polygon points="154,100.07 198.4,46.07 151.2,50.87 106.8,104.47 			"/>
			<path d="M359.2,80.07l-2-19.2c-1.6-16.4-16.4-28.8-32.8-27.2l-13.6,1.2l-44.4,54L359.2,80.07z"/>
			<path d="M46,96.47v14.4l28.4-2.8l44.4-54l-77.6,7.6c-10,0.8-18.4,6.8-23.2,15.2h8.8C37.2,76.47,46,85.27,46,96.47z"/>
			<polygon points="204,162.869 154.8,113.67 107.2,113.67 156.8,162.869 			"/>
			<path d="M46,113.67v15.2c0,10.8-8.8,19.6-19.6,19.6H15.6v14.4H124l-49.6-49.2H46z"/>
			<polygon points="284,162.869 234.8,113.67 187.6,113.67 236.8,162.869 			"/>
			<polygon points="267.6,113.67 317.2,162.869 360.8,162.869 360.8,113.67 			"/>
			<path d="M34,128.869v-32.4c0-4.4-3.6-7.6-7.6-7.6H7.6c-4.4,0-7.6,3.6-7.6,7.6v32.4c0,4.4,3.6,7.6,7.6,7.6h18.8
				C30.8,136.47,34,132.869,34,128.869z"/>
		</g>
	</g>
</g>
<g>
</g>
<g>
</g>
<g>
</g>
<g>
</g>
<g>
</g>
<g>
</g>
<g>
</g>
<g>
</g>
<g>
</g>
<g>
</g>
<g>
</g>
<g>
</g>
<g>
</g>
<g>
</g>
<g>
</g>
</svg>
