<?xml version="1.0" encoding="iso-8859-1"?>
<svg version="1.1" id="Capa_1" xmlns="http://www.w3.org/2000/svg" xmlns:xlink="http://www.w3.org/1999/xlink" x="0px" y="0px"viewBox="0 0 512 512" style="enable-background:new 0 0 512 512;" xml:space="preserve"><path d="M346,482h-15v-30H181v30h-15c-8.291,0-15,6.709-15,15c0,8.291,6.709,15,15,15h180c8.291,0,15-6.709,15-15C361,488.709,354.291,482,346,482z"/><path d="M315.092,141.348C315.663,149.172,316,157.086,316,165s-0.337,15.828-0.908,23.652C345.015,181.664,361,170.685,361,165S345.015,148.336,315.092,141.348z"/><path d="M284.535,136.465C275.671,135.606,266.322,135,256,135s-19.671,0.606-28.535,1.465C226.606,145.329,226,154.678,226,165s0.606,19.671,1.465,28.535C236.329,194.394,245.678,195,256,195s19.671-0.606,28.535-1.465C285.394,184.671,286,175.322,286,165S285.394,145.329,284.535,136.465z"/><path d="M201.006,219.994c-14.808-2.723-28.519-6.53-40.298-11.512c10.497,22.897,28.912,41.312,51.81,51.81C207.536,248.513,203.729,234.802,201.006,219.994z"/><path d="M256,60c-5.739,0-16.862,16.318-23.835,46.789c15.751-1.104,31.919-1.104,47.67,0C272.862,76.318,261.739,60,256,60z"/><path d="M196.908,141.348C166.985,148.336,151,159.315,151,165s15.985,16.664,45.908,23.652C196.337,180.828,196,172.914,196,165S196.337,149.172,196.908,141.348z"/><path d="M256,225c-7.914,0-15.828-0.337-23.652-0.908C239.336,254.015,250.315,270,256,270s16.664-15.985,23.652-45.908C271.828,224.663,263.914,225,256,225z"/><path d="M467,0H45C20.186,0,0,20.186,0,45v287h512V45C512,20.186,491.814,0,467,0z M256,300c-74.443,0-135-60.557-135-135S181.557,30,256,30s135,60.557,135,135S330.443,300,256,300z"/><path d="M0,362v15c0,24.814,20.186,45,45,45h422c24.814,0,45-20.186,45-45v-15H0z"/><path d="M160.441,122.009c11.786-4.9,25.53-8.626,40.411-11.27c2.728-15.093,6.599-29.052,11.666-41.03C189.45,80.284,170.898,98.875,160.441,122.009z"/><path d="M310.994,219.996c-2.723,14.807-6.53,28.517-11.512,40.296c22.897-10.497,41.312-28.912,51.81-51.81C339.513,213.464,325.802,217.273,310.994,219.996z"/><path d="M299.482,69.708c5.067,11.979,8.937,25.937,11.666,41.03c14.881,2.644,28.625,6.37,40.411,11.27C341.102,98.875,322.55,80.284,299.482,69.708z"/>
	</g>
</g>
<g>
</g>
<g>
</g>
<g>
</g>
<g>
</g>
<g>
</g>
<g>
</g>
<g>
</g>
<g>
</g>
<g>
</g>
<g>
</g>
<g>
</g>
<g>
</g>
<g>
</g>
<g>
</g>
<g>
</g>
</svg>
